:SAMPLES-PER-SECOND 30
:FULLY-SPECIFIED
:DEGREES
247
root  12.6098 40.2965 -8.99108 173.328 -81.9417 -171.934
RightUpLeg  -10.8834 -13.9103 -5.81571
RightLeg  11.0864 -1.55737 3.06939
RightFoot  2.0795 -0.20667 1.87402
RightToes  0.00048216 0.542163 -0.142577
Spine  21.6663 -2.94088 -6.08897
Spine1  1.50532 -2.05466 -10.4993
HEad  -32.4571 -1.03757 -17.3113
LeftShoulder1  9.95159 -15.0851 -46.7093
LeftArm  -6.35696 23.131 -9.08644
LeftForeArm  29.948 -21.6772 -3.32694
LeftHand  -0.25398 0.0180481 5.50724
RightShoulder  6.75613 11.389 39.2632
RightArm  23.2498 -10.4311 36.1896
RightForeArm  99.87 80.7144 77.0085
RightHand  0.607442 -1.19086 17.0864
LeftUpLeg  -7.2254 10.9168 11.7134
LeftLeg  9.80329 9.94554 0.347453
LeftFoot  0.809731 0.547921 -5.19255
LeftToes  1.06241e-005 4.65855e-005 -8.18508e-006
248
root  12.5139 40.3555 -8.97055 171.728 -83.2295 -169.843
RightUpLeg  -10.509 -13.3292 -6.13847
RightLeg  10.19 -3.49894 3.24221
RightFoot  2.28126 -0.201803 1.82422
RightToes  0.00048216 0.542163 -0.142577
Spine  22.0074 -2.95352 -6.36308
Spine1  0.820033 -2.19508 -10.504
HEad  -31.792 -1.2022 -17.3544
LeftShoulder1  9.95791 -15.0938 -46.7176
LeftArm  -5.27221 21.6483 -8.89295
LeftForeArm  29.3608 -20.3536 -3.42035
LeftHand  -0.25398 0.0180481 5.50724
RightShoulder  6.73377 11.2699 39.4678
RightArm  21.551 -11.4838 37.9
RightForeArm  85.6855 79.8288 62.5639
RightHand  0.594095 -1.13684 16.5114
LeftUpLeg  -7.44182 10.3998 11.6852
LeftLeg  8.70616 9.4354 -0.191393
LeftFoot  1.39354 0.56106 -5.1029
LeftToes  1.06241e-005 4.65855e-005 -8.18508e-006
249
root  12.4811 40.4015 -8.92266 169.654 -84.5804 -167.222
RightUpLeg  -10.2578 -12.8106 -6.50301
RightLeg  9.20901 -5.46117 3.44153
RightFoot  2.57162 -0.213277 1.90753
RightToes  0.00048216 0.542163 -0.142577
Spine  22.5357 -2.9386 -6.55832
Spine1  0.43318 -2.2627 -10.6105
HEad  -31.1354 -1.23331 -17.052
LeftShoulder1  9.93847 -15.1769 -46.4108
LeftArm  -5.5639 19.4056 -9.32214
LeftForeArm  29.6514 -19.1132 -3.55534
LeftHand  -0.25398 0.0180481 5.50724
RightShoulder  6.73118 11.2415 39.5345
RightArm  19.9244 -11.7723 39.764
RightForeArm  68.1924 77.5781 46.9589
RightHand  0.471244 -1.07066 13.0486
LeftUpLeg  -7.8482 9.8693 11.5482
LeftLeg  7.63385 8.8251 -0.740584
LeftFoot  1.99202 0.558741 -4.88321
LeftToes  1.06241e-005 4.65855e-005 -8.18508e-006
250
root  12.5035 40.439 -8.84619 166.104 -86.0218 -162.971
RightUpLeg  -10.2462 -12.3993 -6.89451
RightLeg  8.19678 -7.42182 3.72181
RightFoot  3.1089 -0.214028 1.85447
RightToes  0.00048216 0.542163 -0.142577
Spine  23.0325 -2.89548 -6.76178
Spine1  0.540803 -2.31282 -10.4607
HEad  -30.509 -1.20966 -16.7093
LeftShoulder1  10.0234 -15.3573 -46.3571
LeftArm  -6.55848 16.3096 -9.87614
LeftForeArm  30.1328 -18.0567 -3.69879
LeftHand  -0.25398 0.0180481 5.50724
RightShoulder  6.7334 11.2501 39.5237
RightArm  18.44 -10.9817 41.4382
RightForeArm  53.0314 73.7164 33.8076
RightHand  0.331686 -0.696445 8.42099
LeftUpLeg  -8.58318 9.27012 11.2501
LeftLeg  6.63568 8.24359 -1.16927
LeftFoot  2.6056 0.546628 -4.59683
LeftToes  1.06241e-005 4.65855e-005 -8.18508e-006
251
root  12.5733 40.4671 -8.73886 159.717 -87.5041 -155.729
RightUpLeg  -10.5389 -12.1545 -7.34501
RightLeg  7.3494 -9.28274 3.99124
RightFoot  3.58457 -0.211898 1.80389
RightToes  0.00048216 0.542163 -0.142577
Spine  23.4699 -2.81728 -6.82272
Spine1  0.965986 -2.30331 -10.1574
HEad  -29.8621 -1.55437 -16.7069
LeftShoulder1  10.2426 -15.6186 -46.7334
LeftArm  -7.49166 12.1888 -10.3133
LeftForeArm  30.3376 -16.7881 -3.97181
LeftHand  -0.25398 0.0180481 5.50724
RightShoulder  6.78768 11.3153 39.6805
RightArm  16.9935 -9.45769 42.4006
RightForeArm  44.0132 68.9763 24.9705
RightHand  0.201989 -0.361211 4.73186
LeftUpLeg  -9.63041 8.64875 10.751
LeftLeg  5.72669 7.72405 -1.47862
LeftFoot  3.28278 0.531355 -4.30214
LeftToes  1.06241e-005 4.65855e-005 -8.18508e-006
252
root  12.6872 40.4833 -8.60153 131.609 -88.8259 -126.738
RightUpLeg  -11.009 -12.0643 -7.89802
RightLeg  6.67179 -10.9654 4.18668
RightFoot  3.9454 -0.233222 1.93795
RightToes  0.00048216 0.542163 -0.142577
Spine  23.9706 -2.72365 -6.62271
Spine1  1.49623 -2.19867 -9.98905
HEad  -29.0817 -2.33467 -16.983
LeftShoulder1  10.5035 -15.8844 -47.2789
LeftArm  -8.44264 7.0305 -10.8208
LeftForeArm  30.5551 -14.9537 -4.47693
LeftHand  -0.25398 0.0180481 5.50724
RightShoulder  6.90547 11.4645 39.994
RightArm  15.6757 -7.59148 42.5905
RightForeArm  39.6576 64.1395 19.3904
RightHand  0.0989112 -0.422353 2.40259
LeftUpLeg  -10.7998 8.03221 10.0782
LeftLeg  4.89435 7.20275 -1.74295
LeftFoot  4.01127 0.508099 -3.97709
LeftToes  1.06241e-005 4.65855e-005 -8.18508e-006
253
root  12.8328 40.4915 -8.4411 55.4869 -89.2075 -49.8437
RightUpLeg  -11.3846 -12.0026 -8.51757
RightLeg  5.90852 -12.536 4.37757
RightFoot  4.44819 -0.271752 2.17825
RightToes  0.00048216 0.542163 -0.142577
Spine  24.4588 -2.65819 -6.23589
Spine1  2.33477 -2.03196 -9.95479
HEad  -27.9124 -3.12946 -17.1244
LeftShoulder1  10.7611 -16.117 -47.8739
LeftArm  -9.62354 0.991428 -11.4397
LeftForeArm  30.9835 -12.6198 -5.16264
LeftHand  -0.25398 0.0180481 5.50724
RightShoulder  7.01858 11.6411 40.1916
RightArm  14.9976 -5.1694 42.4267
RightForeArm  36.4087 58.9364 15.411
RightHand  0.0226236 -0.470195 0.649404
LeftUpLeg  -11.8716 7.47363 9.36007
LeftLeg  4.11009 6.59043 -2.00589
LeftFoot  4.70971 0.482078 -3.63732
LeftToes  1.06241e-005 4.65855e-005 -8.18508e-006
